<?xml version="1.0" encoding="UTF-8"?>
<svg id="Layer_2" data-name="Layer 2" xmlns="http://www.w3.org/2000/svg" viewBox="0 0 131 131">
  <defs>
    <style>
      .cls-1 {
        fill: #231f20;
      }
    </style>
  </defs>
  <g id="Layer_1-2" data-name="Layer 1">
    <path class="cls-1" d="M0,0v131h131V0H0ZM63.85,103.39l-28.91-54.6c-.1-.18-.36-.13-.39.07l-8.08,55.46c-.02.18-.18.32-.37.32h-7.29c-.23,0-.41-.21-.37-.43L30.32,26.37h1.36l32.17,60.84v16.18ZM112.18,104.64h-7.42c-.19,0-.35-.14-.37-.32l-8.12-55.04c-.03-.2-.3-.24-.39-.06l-28.58,54.21v-16.03l31.95-61.03h1.35l11.95,77.84c.04.22-.14.43-.37.43Z"/>
  </g>
</svg>